<?xml version="1.0" standalone="no"?>
<!DOCTYPE svg PUBLIC "-//W3C//DTD SVG 20010904//EN"
 "http://www.w3.org/TR/2001/REC-SVG-20010904/DTD/svg10.dtd">
<svg version="1.0" xmlns="http://www.w3.org/2000/svg"
 width="300.000000pt" height="199.000000pt" viewBox="0 0 300.000000 199.000000"
 preserveAspectRatio="xMidYMid meet">
<metadata>
Created by potrace 1.10, written by Peter Selinger 2001-2011
</metadata>
<g transform="translate(0.000000,199.000000) scale(0.100000,-0.100000)"
fill="#000000" stroke="none">
<path d="M624 1259 c-20 -22 -22 -515 -2 -535 18 -19 542 -21 564 -3 20 17 21
521 0 538 -9 7 -100 12 -280 14 -232 2 -269 0 -282 -14z m556 -269 l0 -260
-275 0 -275 0 0 260 0 260 275 0 275 0 0 -260z"/>
<path d="M660 1228 c0 -2 -1 -110 -3 -241 l-2 -237 253 0 252 0 0 240 0 240
-250 0 c-137 0 -250 -1 -250 -2z m195 -28 c12 0 0 -10 -31 -24 -159 -74 -161
-289 -5 -368 l55 -28 -35 -2 c-39 -2 -81 -2 -126 1 l-32 1 0 209 c0 238 -9
217 93 214 34 -1 70 -2 81 -3z m275 -83 c1 -112 1 -244 0 -293 l0 -42 -61 -4
c-34 -2 -78 -2 -98 1 l-36 6 41 13 c47 14 100 62 120 109 8 18 14 56 14 85 0
75 -30 129 -92 169 -59 38 -51 46 46 41 l65 -4 1 -81z m-125 28 c116 -68 114
-244 -4 -313 -151 -88 -328 61 -266 224 41 108 167 150 270 89z"/>
<path d="M834 1141 c-63 -29 -89 -72 -89 -151 0 -77 24 -119 85 -150 164 -83
327 120 207 257 -56 63 -126 79 -203 44z m165 -30 c35 -25 41 -42 12 -34 -17
4 -45 -14 -53 -36 -1 -5 -25 -11 -52 -14 -42 -5 -52 -3 -63 13 -20 28 -50 25
-68 -7 -15 -27 -16 -27 -9 -3 24 96 150 140 233 81z m21 -66 c0 -8 -6 -15 -14
-15 -17 0 -28 14 -19 24 12 12 33 6 33 -9z m-190 -20 c0 -8 -6 -15 -14 -15
-17 0 -28 14 -19 24 12 12 33 6 33 -9z m226 -52 c-25 -137 -187 -175 -267 -62
-10 13 -20 34 -24 46 -5 18 -1 22 27 28 38 9 163 22 227 24 l43 1 -6 -37z"/>
<path d="M950 975 c-96 -21 -140 -36 -140 -45 0 -4 12 -22 26 -39 21 -26 33
-31 67 -31 51 0 100 28 122 69 32 62 22 69 -75 46z m60 -30 c0 -19 -54 -58
-87 -63 -32 -4 -73 16 -73 35 0 7 3 13 8 13 4 1 30 7 57 15 67 18 95 18 95 0z"/>
<path d="M1352 1078 c-7 -7 -12 -25 -12 -40 0 -24 -4 -28 -28 -28 -56 0 -71
-54 -26 -95 31 -28 85 -33 104 -10 10 12 16 12 34 3 31 -18 66 -21 82 -7 10 8
18 8 27 1 6 -5 35 -9 62 -8 28 2 72 4 98 4 42 2 50 6 65 32 9 16 20 30 23 30
3 0 12 -15 20 -32 24 -56 88 -44 104 19 l6 26 18 -29 c10 -16 24 -34 32 -40
20 -15 87 -18 104 -4 10 8 19 8 34 0 24 -12 121 -11 137 2 7 5 22 4 38 -3 31
-15 56 1 56 36 0 13 7 36 17 52 16 28 15 31 -7 61 -29 39 -48 47 -70 27 -15
-13 -19 -14 -29 -1 -16 19 -32 15 -70 -17 -34 -28 -56 -34 -66 -17 -7 11 -122
8 -149 -5 -15 -7 -18 -5 -14 7 15 38 -57 54 -80 18 -12 -20 -13 -20 -35 5 -20
23 -25 25 -51 15 -22 -8 -27 -15 -23 -31 4 -16 2 -19 -11 -13 -9 4 -45 8 -80
10 -50 2 -66 6 -80 24 -21 26 -50 18 -58 -16 -5 -20 -9 -22 -26 -13 -10 6 -32
7 -49 4 -17 -4 -29 -2 -29 3 0 15 -29 42 -44 42 -6 0 -17 -5 -24 -12z m48 -74
c0 -59 -22 -94 -60 -94 -11 0 -29 9 -40 20 -11 11 -20 29 -20 40 0 13 7 20 20
20 13 0 20 -7 20 -20 0 -13 7 -20 20 -20 18 0 20 7 20 59 0 54 2 59 20 54 17
-5 20 -14 20 -59z m194 5 c11 11 28 21 39 21 19 0 19 -2 -6 -28 l-28 -29 21
-25 c24 -31 25 -38 4 -38 -9 0 -24 10 -35 23 l-18 22 -1 -22 c0 -14 -6 -23
-15 -23 -12 0 -15 15 -15 74 0 51 4 76 13 79 8 2 14 -10 17 -36 l5 -39 19 21z
m237 1 c17 -46 20 -45 38 11 9 27 19 38 37 42 14 2 23 2 22 -2 -2 -3 -16 -39
-32 -79 -37 -92 -57 -94 -91 -9 -39 96 -40 98 -13 88 14 -5 29 -24 39 -51z
m399 -20 c0 -64 -3 -80 -15 -80 -12 0 -15 16 -15 80 0 64 3 80 15 80 12 0 15
-16 15 -80z m80 55 c0 -18 4 -23 15 -19 9 4 15 0 15 -10 0 -9 -7 -16 -15 -16
-11 0 -15 -12 -15 -45 0 -33 -4 -45 -15 -45 -11 0 -15 12 -15 45 0 33 -4 45
-15 45 -8 0 -15 7 -15 15 0 9 6 12 15 9 11 -5 15 1 15 20 0 16 6 26 15 26 9 0
15 -9 15 -25z m-805 -40 c14 -13 25 -29 25 -35 0 -13 -45 -60 -58 -60 -19 0
-62 42 -62 60 0 18 43 60 62 60 5 0 20 -11 33 -25z m222 10 c11 -8 23 -24 26
-35 5 -18 0 -20 -40 -20 -28 0 -42 -4 -38 -10 4 -6 22 -8 43 -5 l37 6 -24 -20
c-28 -25 -39 -26 -69 -5 -42 29 -18 95 38 103 3 1 15 -6 27 -14z m333 -46 l0
-58 -40 3 c-44 4 -80 29 -80 57 0 26 43 55 84 56 l36 1 0 -59z m50 21 c0 -33
3 -40 20 -40 17 0 20 7 20 41 0 33 3 40 18 37 13 -2 18 -15 20 -60 l3 -57 -47
3 c-56 3 -74 23 -74 78 0 31 4 38 20 38 17 0 20 -7 20 -40z"/>
<path d="M1450 984 c-11 -12 -10 -18 3 -32 16 -15 18 -15 34 0 13 14 14 20 3
32 -7 9 -16 16 -20 16 -4 0 -13 -7 -20 -16z"/>
<path d="M1680 990 c-12 -8 -9 -10 13 -10 16 0 26 4 22 10 -8 12 -16 12 -35 0z"/>
<path d="M1980 984 c-11 -12 -10 -18 3 -32 16 -15 18 -15 34 0 13 14 14 20 3
32 -7 9 -16 16 -20 16 -4 0 -13 -7 -20 -16z"/>
</g>
</svg>
